<svg width="20" height="18" viewBox="0 0 20 18" fill="none" xmlns="http://www.w3.org/2000/svg">
<path fill-rule="evenodd" clip-rule="evenodd" d="M0.366667 0.9H19.6333C19.836 0.9 20 1.06909 20 1.27754C20 1.48599 19.836 1.65486 19.6333 1.65486H0.366667C0.164 1.65486 0 1.48622 0 1.27754C0 1.06886 0.164 0.9 0.366667 0.9ZM5.36667 6.0483H19.6333C19.836 6.0483 20 6.2174 20 6.42585C20 6.6343 19.836 6.80316 19.6333 6.80316H5.36667C5.164 6.80316 5 6.6343 5 6.42585C5 6.2174 5.164 6.0483 5.36667 6.0483ZM19.6333 11.1966H0.366667C0.164 11.1966 0 11.3655 0 11.5742C0 11.7826 0.164 11.9517 0.366667 11.9517H19.6333C19.836 11.9517 20 11.7826 20 11.5742C20 11.3655 19.836 11.1966 19.6333 11.1966ZM5.36667 16.3447H19.6333C19.836 16.3447 20 16.5136 20 16.7222C20 16.9309 19.836 17.1 19.6333 17.1H5.36667C5.164 17.1 5 16.9309 5 16.7222C5 16.5136 5.164 16.3447 5.36667 16.3447Z" fill="#50B8E4"/>
</svg>
