<svg width="9" height="11" viewBox="0 0 9 11" fill="none" xmlns="http://www.w3.org/2000/svg">
<path fill-rule="evenodd" clip-rule="evenodd" d="M8.25926 7.15709C8.13806 7.03564 7.94146 7.03564 7.82066 7.15709L4.81028 10.1735L4.81028 0.310838C4.81028 0.139213 4.67154 0 4.50008 0C4.329 0 4.18988 0.139213 4.18988 0.310838L4.18988 10.1735L1.1795 7.15728C1.0587 7.03584 0.862096 7.03584 0.740902 7.15728C0.619707 7.27853 0.619707 7.47535 0.740902 7.59679L3.88222 10.744C4.04687 10.9092 4.26626 11 4.50008 11C4.73409 11 4.95329 10.909 5.11833 10.7438L8.25926 7.5966C8.38026 7.47515 8.38026 7.27834 8.25926 7.15709Z" fill="#50B8E4"/>
</svg>
