<svg width="20" height="18" viewBox="0 0 20 18" fill="none" xmlns="http://www.w3.org/2000/svg">
<path fill-rule="evenodd" clip-rule="evenodd" d="M1.77647 7.47632C1.63491 7.41666 1.5258 7.30653 1.46869 7.16624L0.0256058 3.61122C-0.0477264 3.43051 0.0418277 3.22555 0.225603 3.15322C0.409155 3.08111 0.617818 3.16917 0.691151 3.34988L1.87113 6.25526C2.52134 4.29365 3.77932 2.61873 5.47952 1.47546C7.44237 0.155846 9.75878 -0.299539 12.0032 0.194087C15.2305 0.904042 17.7169 3.48929 18.4209 6.82886C18.4613 7.01962 18.3286 7.20164 18.1335 7.23398C17.9384 7.26632 17.7544 7.13675 17.7135 6.94642C17.0591 3.89049 14.7885 1.52899 11.8467 0.881972C9.79856 0.430738 7.68104 0.848539 5.88396 2.05715C4.27643 3.13814 3.09778 4.73658 2.50957 6.60838L5.56618 5.40851C5.74974 5.3364 5.95862 5.42424 6.03195 5.60496C6.10529 5.78567 6.01595 5.99063 5.83196 6.06296L2.2169 7.482C2.14757 7.50909 2.07579 7.52264 2.00402 7.52264C1.92691 7.52264 1.84958 7.50713 1.77647 7.47632ZM17.7835 10.517C17.9255 10.461 18.0822 10.4628 18.2238 10.5222C18.3651 10.5819 18.4744 10.692 18.5318 10.8325L19.9744 14.3882C20.0477 14.5687 19.9582 14.7736 19.7744 14.846C19.5906 14.9181 19.3822 14.8302 19.3088 14.6495L18.1298 11.7444C17.4795 13.7064 16.2216 15.3818 14.5214 16.5246C13.0752 17.497 11.437 18 9.777 18C9.1839 18 8.58813 17.9358 7.99725 17.806C4.76975 17.096 2.28357 14.5101 1.57891 11.1699C1.53869 10.9791 1.67113 10.7971 1.86624 10.7648C2.06135 10.7324 2.24535 10.8618 2.28646 11.0521C2.94111 14.1089 5.21152 16.4706 8.1537 17.1179C10.2019 17.5691 12.3196 17.1515 14.1167 15.9429C15.7242 14.8621 16.9029 13.263 17.4909 11.3904L14.4336 12.5904C14.25 12.6626 14.0414 12.5747 13.968 12.3936C13.8947 12.2133 13.9843 12.0083 14.168 11.936L17.7835 10.517Z" fill="#50B8E4"/>
</svg>
