<svg width="20" height="20" viewBox="0 0 20 20" fill="none" xmlns="http://www.w3.org/2000/svg">
<path fill-rule="evenodd" clip-rule="evenodd" d="M3.0331 9.40211C2.96047 9.45848 2.8757 9.48558 2.79173 9.48558C2.66592 9.48558 2.54146 9.4246 2.46154 9.30969C2.3279 9.11753 2.36705 8.8476 2.54902 8.70667L11.9425 1.44331L8.22053 0.85791C7.99672 0.822948 7.84283 0.603421 7.8763 0.367633C7.90978 0.132116 8.11875 -0.0302252 8.34121 0.0047365L12.8016 0.705867C12.9749 0.732969 13.128 0.829994 13.2325 0.978785C13.3372 1.12785 13.3807 1.31051 13.3545 1.49318L12.6893 6.19647C12.6593 6.41031 12.4844 6.56425 12.2854 6.56425C12.2649 6.56425 12.2443 6.56262 12.2241 6.55937C12.0011 6.52414 11.8467 6.30488 11.8799 6.06909L12.4374 2.13089L3.0331 9.40211ZM19.5907 20H0.409023C0.183318 20 0 19.8065 0 19.5685C0 19.33 0.183318 19.1371 0.409023 19.1371H19.5907C19.8167 19.1371 20 19.33 20 19.5685C20 19.8065 19.8167 20 19.5907 20Z" fill="#50B8E4"/>
<mask id="mask0" mask-type="alpha" maskUnits="userSpaceOnUse" x="0" y="0" width="20" height="20">
<path fill-rule="evenodd" clip-rule="evenodd" d="M3.0331 9.40211C2.96047 9.45848 2.8757 9.48558 2.79173 9.48558C2.66592 9.48558 2.54146 9.4246 2.46154 9.30969C2.3279 9.11753 2.36705 8.8476 2.54902 8.70667L11.9425 1.44331L8.22053 0.85791C7.99672 0.822948 7.84283 0.603421 7.8763 0.367633C7.90978 0.132116 8.11875 -0.0302252 8.34121 0.0047365L12.8016 0.705867C12.9749 0.732969 13.128 0.829994 13.2325 0.978785C13.3372 1.12785 13.3807 1.31051 13.3545 1.49318L12.6893 6.19647C12.6593 6.41031 12.4844 6.56425 12.2854 6.56425C12.2649 6.56425 12.2443 6.56262 12.2241 6.55937C12.0011 6.52414 11.8467 6.30488 11.8799 6.06909L12.4374 2.13089L3.0331 9.40211ZM19.5907 20H0.409023C0.183318 20 0 19.8065 0 19.5685C0 19.33 0.183318 19.1371 0.409023 19.1371H19.5907C19.8167 19.1371 20 19.33 20 19.5685C20 19.8065 19.8167 20 19.5907 20Z" fill="white"/>
</mask>
<g mask="url(#mask0)">
</g>
</svg>
