<svg width="20" height="20" viewBox="0 0 20 20" fill="none" xmlns="http://www.w3.org/2000/svg">
<path fill-rule="evenodd" clip-rule="evenodd" d="M5.27394 1.84748e-06C5.4377 9.72233e-05 5.71397 0.0437328 5.87758 0.0817557L17.8903 4.59061C19.4152 5.0934 20 5.72545 20 7.27974C20 8.83403 20 9.68435 20 9.68435V17.5852C20 18.8862 18.8979 20 17.5 20H2.5C1.10395 20 0 18.888 0 17.5852V6.9216C0 5.61976 1.10295 4.91955 2.5 4.91955H15.7283C15.7283 4.91955 5.57261 1.21686 5.41968 1.17667C5.27369 1.17667 5.16766 1.22987 5.09516 1.32589C5.02266 1.42191 5 1.58676 5 1.78042V2.94241H3.81213V1.734C3.81213 1.15301 3.88346 0.700885 4.34008 0.318862C4.68255 0.0323451 4.78264 -0.000284264 5.27394 1.84748e-06ZM17.5 5.89542H2.5C1.71374 5.89542 1.10766 6.50207 1.10766 7.1822V17.4764C1.10766 18.3946 1.5902 18.9225 2.5 18.9225H17.5C18.4178 18.9225 18.9176 18.3328 18.9176 17.4764V7.27794C18.9176 6.39395 18.3266 5.89542 17.5 5.89542ZM4.625 10.1576C5.52246 10.1576 6.25 10.892 6.25 11.798C6.25 12.704 5.52246 13.4384 4.625 13.4384C3.72754 13.4384 3 12.704 3 11.798C3 10.892 3.72754 10.1576 4.625 10.1576Z" fill="#50B8E4"/>
<mask id="mask0" mask-type="alpha" maskUnits="userSpaceOnUse" x="0" y="0" width="20" height="20">
<path fill-rule="evenodd" clip-rule="evenodd" d="M5.27394 1.84748e-06C5.4377 9.72233e-05 5.71397 0.0437328 5.87758 0.0817557L17.8903 4.59061C19.4152 5.0934 20 5.72545 20 7.27974C20 8.83403 20 9.68435 20 9.68435V17.5852C20 18.8862 18.8979 20 17.5 20H2.5C1.10395 20 0 18.888 0 17.5852V6.9216C0 5.61976 1.10295 4.91955 2.5 4.91955H15.7283C15.7283 4.91955 5.57261 1.21686 5.41968 1.17667C5.27369 1.17667 5.16766 1.22987 5.09516 1.32589C5.02266 1.42191 5 1.58676 5 1.78042V2.94241H3.81213V1.734C3.81213 1.15301 3.88346 0.700885 4.34008 0.318862C4.68255 0.0323451 4.78264 -0.000284264 5.27394 1.84748e-06ZM17.5 5.89542H2.5C1.71374 5.89542 1.10766 6.50207 1.10766 7.1822V17.4764C1.10766 18.3946 1.5902 18.9225 2.5 18.9225H17.5C18.4178 18.9225 18.9176 18.3328 18.9176 17.4764V7.27794C18.9176 6.39395 18.3266 5.89542 17.5 5.89542ZM4.625 10.1576C5.52246 10.1576 6.25 10.892 6.25 11.798C6.25 12.704 5.52246 13.4384 4.625 13.4384C3.72754 13.4384 3 12.704 3 11.798C3 10.892 3.72754 10.1576 4.625 10.1576Z" fill="white"/>
</mask>
<g mask="url(#mask0)">
</g>
</svg>
